<?xml version="1.0" standalone="no"?>
<!DOCTYPE svg PUBLIC "-//W3C//DTD SVG 20010904//EN"
 "http://www.w3.org/TR/2001/REC-SVG-20010904/DTD/svg10.dtd">
<svg version="1.0" xmlns="http://www.w3.org/2000/svg"
 width="875.000000pt" height="875.000000pt" viewBox="0 0 875.000000 875.000000"
 preserveAspectRatio="xMidYMid meet">

<g transform="translate(0.000000,875.000000) scale(0.100000,-0.100000)"
fill="#000000" stroke="none">
<path d="M1650 7583 c-46 -18 -56 -119 -25 -252 14 -65 113 -277 135 -291 4
-3 10 -15 14 -27 4 -13 13 -29 19 -35 7 -7 26 -35 41 -63 16 -27 32 -52 35
-55 14 -12 42 -72 37 -77 -3 -4 -14 1 -23 9 -10 9 -28 19 -40 22 -13 4 -23 11
-23 14 0 4 -17 16 -37 27 -21 11 -43 24 -49 30 -6 5 -22 17 -34 25 -21 14 -41
29 -130 98 -19 15 -75 63 -125 107 -133 118 -227 192 -260 205 -70 27 -135
-18 -135 -93 0 -93 72 -199 268 -396 73 -73 131 -136 128 -138 -4 -5 -47 15
-56 26 -12 14 -87 61 -98 61 -7 0 -12 5 -12 10 0 6 -5 10 -10 10 -6 0 -59 32
-119 70 -59 39 -113 70 -119 70 -7 0 -12 4 -12 8 0 9 -79 49 -125 64 -16 5
-59 9 -95 8 -84 -2 -115 -26 -105 -80 11 -56 47 -106 153 -214 119 -121 220
-210 367 -321 33 -25 65 -49 72 -55 7 -5 14 -10 17 -10 2 0 33 -18 67 -40 35
-22 72 -43 82 -46 68 -24 -70 -32 -198 -13 -109 17 -174 23 -496 49 -162 14
-183 10 -192 -38 -9 -45 2 -68 46 -99 23 -15 44 -31 47 -34 7 -9 103 -59 113
-59 5 0 23 -6 40 -14 29 -13 105 -39 117 -41 3 0 10 -3 15 -6 6 -4 35 -12 65
-19 30 -7 60 -16 65 -20 6 -4 35 -13 65 -20 30 -7 60 -16 65 -20 6 -4 37 -13
70 -20 33 -7 65 -16 70 -20 6 -4 30 -11 55 -15 25 -4 50 -11 55 -15 6 -5 49
-16 95 -25 144 -27 153 -30 158 -43 2 -8 -8 -12 -30 -13 -30 0 -155 -13 -233
-24 -67 -9 -151 -27 -170 -35 -11 -5 -39 -14 -62 -20 -23 -6 -54 -17 -70 -25
-15 -8 -34 -15 -40 -15 -23 0 -92 -71 -98 -101 -10 -43 23 -76 95 -96 21 -6
186 -34 235 -40 22 -3 114 -6 205 -9 91 -2 168 -4 173 -4 4 0 7 -4 7 -8 0 -8
-80 -52 -95 -52 -4 0 -21 -6 -38 -14 -18 -7 -53 -21 -80 -31 -45 -16 -148 -99
-166 -134 -14 -27 6 -75 36 -88 43 -19 193 -33 351 -33 78 0 142 -4 142 -9 0
-5 -16 -21 -35 -35 -68 -52 -80 -120 -27 -147 15 -7 32 -13 37 -14 6 0 16 -5
24 -10 8 -4 92 -11 185 -14 l171 -6 1 -44 c1 -56 34 -86 114 -102 30 -6 60
-15 65 -19 6 -4 25 -11 42 -15 18 -3 56 -28 85 -55 29 -27 64 -54 78 -59 14
-5 34 -12 45 -17 11 -4 25 -8 30 -9 6 0 17 -4 25 -8 8 -3 29 -7 45 -9 24 -2
32 -9 39 -35 7 -21 22 -38 48 -52 35 -18 54 -20 183 -18 l144 2 29 -28 c22
-22 44 -30 93 -37 82 -12 221 6 239 30 3 4 15 10 28 14 19 7 22 4 22 -22 0
-40 38 -94 75 -105 17 -5 56 -12 89 -16 l59 -6 28 -55 c35 -65 74 -101 109
-99 44 2 48 0 55 -32 6 -26 17 -35 61 -55 30 -13 70 -24 89 -24 30 0 37 -5 61
-48 35 -62 88 -101 130 -95 27 4 35 0 54 -29 13 -18 31 -41 40 -50 20 -19 82
-38 127 -38 22 0 36 -6 43 -20 20 -38 90 -72 161 -80 51 -6 79 -15 114 -39 25
-17 57 -31 70 -31 30 0 158 40 166 52 3 5 21 11 40 14 30 4 41 -1 84 -40 l50
-45 -29 -23 c-45 -35 -125 -105 -187 -162 -127 -117 -220 -199 -329 -291 -63
-54 -122 -104 -130 -112 -8 -8 -38 -31 -67 -51 -235 -169 -311 -232 -281 -232
23 0 162 74 208 110 40 31 139 80 163 80 9 0 19 4 22 10 3 5 16 10 28 9 12 0
56 7 97 16 97 21 161 26 174 16 6 -5 27 -12 46 -16 19 -4 41 -12 48 -17 6 -6
12 -7 12 -3 0 4 6 3 13 -3 6 -5 28 -13 47 -17 19 -4 40 -11 46 -16 9 -7 75
-26 159 -44 111 -25 383 -32 540 -14 44 5 87 9 95 10 27 1 175 30 190 36 8 4
20 7 25 8 6 0 15 3 20 6 6 4 23 9 40 13 16 4 50 16 75 27 70 31 102 45 140 59
42 16 153 87 195 124 89 79 187 182 239 250 33 43 96 165 96 186 0 6 5 10 10
10 6 0 10 6 10 14 0 8 6 21 13 28 6 7 19 26 27 41 20 39 177 197 234 235 61
41 129 72 175 79 20 3 41 10 47 14 6 5 22 9 35 8 39 -1 152 21 186 36 17 8 35
15 40 15 11 0 89 56 119 85 12 11 48 54 80 95 90 114 94 116 145 69 38 -34 90
-69 103 -69 5 0 6 37 3 83 -5 87 -24 137 -72 192 -27 31 -58 82 -60 100 -3 24
-59 142 -74 155 -3 3 -21 27 -40 54 -69 99 -213 216 -285 232 -17 3 -37 11
-45 18 -9 7 -78 11 -205 11 l-191 0 -110 -39 c-60 -21 -123 -44 -140 -51 -16
-8 -93 -37 -170 -65 -77 -28 -156 -57 -175 -64 -63 -25 -75 -29 -84 -27 -4 1
-13 -2 -20 -8 -23 -18 -130 -32 -276 -36 -82 -2 -152 0 -155 5 -2 4 -24 10
-47 14 -38 6 -144 50 -158 66 -3 3 -34 25 -69 49 -35 24 -73 51 -84 60 -37 30
-122 102 -163 139 -148 133 -320 281 -381 329 -108 84 -191 146 -222 165 -20
11 -40 26 -46 33 -5 6 -66 48 -135 93 -69 45 -130 86 -136 91 -6 5 -26 17 -44
26 -18 9 -38 21 -44 27 -6 5 -56 38 -111 73 -55 36 -104 68 -110 72 -27 22
-177 113 -185 113 -6 0 -10 3 -10 8 0 6 -89 51 -135 67 -26 10 -107 6 -121 -6
-15 -12 -11 -67 9 -113 9 -21 17 -41 17 -43 0 -8 -73 7 -85 17 -6 5 -32 14
-58 20 -26 7 -47 16 -47 21 0 5 -8 9 -17 9 -9 0 -36 9 -60 20 -122 57 -181 82
-193 84 -9 2 -145 71 -150 76 -5 6 -129 77 -212 123 -21 11 -38 24 -38 29 0 4
-4 8 -10 8 -12 0 -174 102 -178 112 -2 5 -8 8 -14 8 -5 0 -38 21 -73 48 -35
26 -73 54 -85 62 -12 8 -37 26 -55 40 -18 14 -46 34 -61 45 -16 11 -69 56
-119 100 -49 44 -106 93 -125 110 -85 72 -307 305 -387 405 -15 19 -32 40 -38
46 -5 6 -17 22 -25 34 -83 125 -179 233 -216 243 -10 3 -26 3 -34 0z"/>
</g>
</svg>
