<?xml version="1.0" standalone="no"?>
<!DOCTYPE svg PUBLIC "-//W3C//DTD SVG 20010904//EN"
 "http://www.w3.org/TR/2001/REC-SVG-20010904/DTD/svg10.dtd">
<svg version="1.0" xmlns="http://www.w3.org/2000/svg"
 width="1250.000000pt" height="685.000000pt" viewBox="0 0 1250.000000 685.000000"
 preserveAspectRatio="xMidYMid meet">

<g transform="translate(0.000000,685.000000) scale(0.100000,-0.100000)"
fill="#000000" stroke="none">
<path d="M4011 5963 c-17 -11 -21 -25 -21 -65 0 -108 54 -239 178 -432 28 -44
50 -82 47 -84 -6 -6 -171 103 -230 152 -27 22 -98 82 -157 133 -104 90 -153
123 -181 123 -8 0 -26 -9 -41 -21 -33 -26 -35 -82 -6 -138 30 -59 132 -181
218 -262 42 -39 64 -63 47 -53 -141 85 -244 149 -266 165 -103 73 -236 101
-274 59 -17 -19 -17 -22 0 -67 34 -91 301 -337 486 -449 43 -26 79 -51 79 -54
0 -4 -12 -5 -27 -3 -296 32 -418 43 -513 45 -111 3 -114 2 -126 -20 -19 -37
-5 -62 56 -101 87 -57 337 -141 615 -207 202 -49 204 -50 115 -58 -186 -17
-376 -67 -429 -112 -58 -49 -46 -103 28 -124 59 -17 290 -41 371 -40 41 1 82
1 90 1 21 -2 -44 -36 -117 -61 -41 -14 -80 -37 -113 -67 -56 -50 -65 -83 -27
-107 32 -20 149 -36 274 -36 l108 -1 -28 -20 c-33 -25 -59 -72 -51 -93 11 -30
85 -48 212 -54 121 -5 122 -5 122 -29 0 -47 17 -62 108 -89 62 -19 97 -35 122
-59 45 -42 89 -64 145 -72 37 -5 46 -10 51 -30 11 -44 39 -53 163 -53 105 0
117 -2 139 -22 35 -34 160 -38 227 -9 58 26 55 26 55 -3 0 -14 10 -37 23 -52
18 -21 35 -28 81 -33 58 -6 60 -7 85 -54 29 -53 52 -72 82 -64 14 4 24 -3 35
-25 17 -32 66 -58 112 -58 23 0 32 -6 42 -30 16 -40 65 -80 96 -80 16 0 39
-14 63 -40 32 -34 44 -40 80 -40 32 0 46 -6 64 -26 27 -33 75 -54 120 -54 20
0 50 -10 71 -25 47 -32 63 -31 158 2 l77 27 36 -34 36 -35 -43 -35 c-24 -19
-92 -80 -153 -135 -168 -153 -298 -262 -426 -357 -119 -89 -151 -118 -130
-118 16 0 87 37 136 70 73 50 122 69 233 92 l110 22 148 -47 c176 -55 243 -67
384 -67 239 1 442 46 627 138 151 76 288 217 374 385 98 191 247 312 414 337
164 25 215 53 314 174 34 42 67 76 73 76 5 0 30 -18 55 -40 25 -22 50 -40 56
-40 6 0 8 27 5 71 -5 59 -10 77 -37 112 -17 23 -40 62 -51 87 -53 118 -80 159
-150 230 -115 117 -200 147 -385 137 -105 -6 -166 -23 -440 -127 -203 -77
-257 -90 -381 -90 -210 0 -256 26 -634 360 -131 115 -311 253 -450 345 -506
332 -571 369 -637 363 -35 -3 -38 -6 -41 -35 -2 -17 4 -46 13 -62 8 -17 11
-31 6 -31 -17 0 -159 54 -276 105 -269 117 -637 360 -883 584 -134 123 -284
286 -357 391 -60 85 -118 146 -145 153 -10 3 -28 -2 -39 -10z"/>
</g>
</svg>
