<?xml version="1.0" encoding="UTF-8"?>
<svg xmlns="http://www.w3.org/2000/svg" xmlns:xlink="http://www.w3.org/1999/xlink" width="24pt" height="24pt" viewBox="0 0 24 24" version="1.1">
<g id="surface1">
<path style=" stroke:none;fill-rule:nonzero;fill:rgb(0%,0%,0%);fill-opacity:1;" d="M 4.449219 3.363281 C 4.351562 3.523438 4.574219 4.210938 4.9375 4.824219 C 5.113281 5.125 5.226562 5.375 5.175781 5.375 C 5.074219 5.375 4.414062 4.914062 3.824219 4.414062 C 2.863281 3.613281 2.539062 4.011719 3.386719 4.9375 C 3.675781 5.25 3.886719 5.523438 3.863281 5.5625 C 3.835938 5.585938 3.5 5.414062 3.125 5.175781 C 2.425781 4.738281 2.074219 4.648438 1.9375 4.886719 C 1.851562 5.011719 2.625 5.824219 3.5625 6.601562 C 4 6.960938 4.023438 7 3.75 6.949219 C 3.574219 6.914062 3.023438 6.851562 2.511719 6.800781 C 1.675781 6.726562 1.601562 6.738281 1.648438 6.949219 C 1.6875 7.175781 3.074219 7.738281 4.1875 7.976562 C 4.710938 8.101562 4.675781 8.125 3.6875 8.363281 C 2.414062 8.675781 2.511719 9.023438 3.914062 9.136719 L 4.8125 9.199219 L 4.363281 9.398438 C 3.875 9.625 3.585938 9.914062 3.710938 10.039062 C 3.75 10.085938 4.085938 10.125 4.460938 10.125 C 5.0625 10.125 5.351562 10.273438 4.976562 10.398438 C 4.648438 10.511719 5.050781 10.75 5.574219 10.75 C 5.925781 10.75 6.125 10.800781 6.125 10.898438 C 6.125 10.988281 6.488281 11.226562 6.9375 11.4375 C 7.386719 11.636719 7.75 11.851562 7.75 11.898438 C 7.75 11.9375 8.226562 12.011719 8.8125 12.0625 C 9.398438 12.113281 9.875 12.199219 9.875 12.261719 C 9.875 12.324219 10.011719 12.398438 10.175781 12.449219 C 10.351562 12.488281 10.511719 12.601562 10.550781 12.699219 C 10.585938 12.800781 10.699219 12.875 10.800781 12.875 C 10.898438 12.875 11 12.914062 11.023438 12.960938 C 11.085938 13.113281 11.851562 13.625 12 13.625 C 12.0625 13.625 12.125 13.675781 12.125 13.75 C 12.125 13.8125 12.199219 13.875 12.289062 13.875 C 12.375 13.875 12.699219 14 13 14.136719 C 13.449219 14.351562 13.625 14.386719 13.898438 14.273438 C 14.148438 14.1875 14.273438 14.1875 14.375 14.3125 C 14.5 14.460938 13.949219 15.011719 12.25 16.425781 C 11.875 16.726562 11.875 16.75 12.175781 16.5625 C 12.851562 16.164062 13.363281 16.113281 14.375 16.386719 C 15.375 16.648438 15.886719 16.625 17.085938 16.300781 C 17.835938 16.085938 18.574219 15.476562 19.164062 14.5625 C 19.636719 13.835938 20.1875 13.425781 20.875 13.3125 C 21.210938 13.25 21.476562 13.101562 21.699219 12.835938 C 21.976562 12.511719 22.0625 12.476562 22.261719 12.601562 C 22.625 12.824219 22.574219 12.5 22.113281 11.6875 C 21.363281 10.351562 20.511719 10.148438 18.710938 10.863281 C 17.625 11.289062 16.824219 11.363281 16.25 11.0625 C 16.050781 10.960938 15.5 10.539062 15.039062 10.113281 C 14.023438 9.210938 11.3125 7.375 10.988281 7.375 C 10.851562 7.375 10.75 7.460938 10.75 7.5625 C 10.75 7.824219 10.613281 7.800781 9.675781 7.375 C 8.011719 6.625 6.125 5.148438 5.175781 3.863281 C 4.738281 3.261719 4.574219 3.148438 4.449219 3.363281 Z M 4.449219 3.363281 "/>
</g>
</svg>
